<svg width="100" height="100" viewBox="0 0 100 100" fill="none" xmlns="http://www.w3.org/2000/svg">
<rect x="21" y="21" width="58" height="58" rx="16" fill="url(#paint0_radial_124_691)" fill-opacity="0.25" stroke="url(#paint1_linear_124_691)" stroke-opacity="0.5"/>
<path d="M50 64.1132C50.3672 64.1132 50.7382 64.0989 51.1031 64.0708C51.4141 64.0468 51.6467 63.7753 51.6225 63.4643C51.5977 63.1537 51.3325 62.9227 51.016 62.945C50.6803 62.971 50.3385 62.9842 50 62.9842C42.8403 62.9842 37.0158 57.1594 37.0158 50C37.0158 42.8405 42.8403 37.0158 50 37.0158C57.1597 37.0158 62.9842 42.8405 62.9842 50C62.9842 51.2887 62.7962 52.5602 62.4257 53.7789C62.3353 54.0774 62.5034 54.3927 62.8017 54.4831C63.1016 54.5755 63.4152 54.4054 63.5062 54.1074C63.9087 52.7819 64.1132 51.4 64.1132 50C64.1132 42.2179 57.7821 35.8867 50 35.8867C42.2179 35.8867 35.8868 42.2179 35.8868 50C35.8868 57.7821 42.2179 64.1132 50 64.1132Z" fill="#00D1FF"/>
<path d="M55.9948 61.7865C56.2407 61.6313 56.4601 61.5362 56.6658 61.4963C57.7639 61.2832 58.5501 60.3154 58.5352 59.1943C58.5176 57.9552 57.4955 56.9332 56.2561 56.9158C55.631 56.913 55.0444 57.1434 54.6006 57.5815C54.1563 58.0192 53.912 58.6036 53.912 59.2271C53.912 59.5389 54.1645 59.7917 54.4766 59.7917C54.7886 59.7917 55.0411 59.5389 55.0411 59.2271C55.0411 58.9082 55.1662 58.6091 55.3934 58.3853C55.6161 58.1653 55.9105 58.0446 56.2236 58.0446C56.2291 58.0446 56.2346 58.0448 56.2407 58.0448C56.8637 58.0534 57.3973 58.5874 57.4061 59.21C57.4139 59.7836 57.012 60.279 56.4507 60.3882C56.1046 60.4552 55.7583 60.6004 55.3917 60.8319C54.465 61.4172 53.912 62.4211 53.912 63.5487C53.912 63.8605 54.1645 64.1132 54.4766 64.1132H57.9707C58.2827 64.1132 58.5352 63.8605 58.5352 63.5487C58.5352 63.237 58.2827 62.9842 57.9707 62.9842H55.1105C55.2417 62.4939 55.5521 62.066 55.9948 61.7865Z" fill="#00D1FF"/>
<path d="M62.4147 64.1131C62.7267 64.1131 62.9792 63.8604 62.9792 63.5486V62.8565H63.5487C63.8607 62.8565 64.1132 62.6037 64.1132 62.292C64.1132 61.9802 63.8607 61.7274 63.5487 61.7274H62.9792V57.4799C62.9792 57.2307 62.816 57.0113 62.5773 56.9393C62.3397 56.868 62.0817 56.9606 61.9439 57.1682L58.7563 61.9802C58.6416 62.1535 58.6311 62.376 58.7298 62.559C58.8279 62.7421 59.0192 62.8565 59.2271 62.8565H61.8502V63.5486C61.8502 63.8604 62.1027 64.1131 62.4147 64.1131ZM60.2784 61.7274L61.8502 59.3543V61.7274H60.2784Z" fill="#00D1FF"/>
<path d="M50.0011 39.8179C44.3727 39.8179 39.817 44.3736 39.817 50.002C39.817 55.6247 44.3727 60.1861 50.0011 60.1861C51.0003 60.1861 51.9713 60.0393 52.8802 59.7684C52.8181 59.5991 52.7842 59.4183 52.7842 59.2264C52.7842 58.3006 53.1456 57.4312 53.806 56.7764C54.4553 56.1385 55.319 55.7885 56.2448 55.7885C56.8827 55.7941 57.4868 55.9804 58.0005 56.2965C59.3723 54.5634 60.1852 52.3787 60.1852 50.002C60.1852 44.3736 55.6238 39.8179 50.0011 39.8179ZM50.5656 50.002C50.5656 50.1488 50.5035 50.2955 50.4019 50.3972L46.7099 54.0892C46.597 54.2022 46.4502 54.2585 46.3091 54.2585C46.1623 54.2585 46.0212 54.2022 45.9082 54.0892C45.6881 53.869 45.6881 53.5134 45.9082 53.2932L49.4365 49.7649V44.8648C49.4365 44.5543 49.6906 44.3002 50.0011 44.3002C50.3116 44.3002 50.5656 44.5543 50.5656 44.8648V50.002Z" fill="#00D1FF"/>
<path d="M10 75L10 53H21" stroke="#007C97"/>
<circle cx="4" cy="4" r="3.5" transform="matrix(1 0 0 -1 6 83)" stroke="#007C97"/>
<path d="M90 21L90 43L79 43" stroke="#00D1FF"/>
<circle cx="4" cy="4" r="3.5" transform="matrix(-1 -8.74228e-08 -8.74228e-08 1 94 13)" stroke="#00D1FF"/>
<defs>
<radialGradient id="paint0_radial_124_691" cx="0" cy="0" r="1" gradientUnits="userSpaceOnUse" gradientTransform="translate(50 50) rotate(90) scale(29)">
<stop offset="0.390625" stop-color="#00D1FF" stop-opacity="0"/>
<stop offset="1" stop-color="#00D1FF"/>
</radialGradient>
<linearGradient id="paint1_linear_124_691" x1="50" y1="21" x2="50" y2="79" gradientUnits="userSpaceOnUse">
<stop stop-color="#00D1FF"/>
<stop offset="1" stop-color="#00D1FF" stop-opacity="0"/>
</linearGradient>
</defs>
</svg>
