<svg width="100" height="100" viewBox="0 0 100 100" fill="none" xmlns="http://www.w3.org/2000/svg">
<path fill-rule="evenodd" clip-rule="evenodd" d="M82.6301 33.968C82.2746 34.426 82.2105 35.0442 82.4464 35.5739C84.4091 39.9818 85.5 44.8635 85.5 50C85.5 55.1365 84.4091 60.0182 82.4464 64.4261C82.2105 64.9557 82.2746 65.574 82.6301 66.032C83.3134 66.9122 84.674 66.7895 85.131 65.7732C87.2957 60.9594 88.5 55.6203 88.5 50C88.5 44.3796 87.2957 39.0406 85.131 34.2268C84.674 33.2105 83.3134 33.0878 82.6301 33.968ZM17.3699 33.968C16.6866 33.0878 15.326 33.2105 14.869 34.2268C12.7043 39.0406 11.5 44.3796 11.5 50C11.5 55.6203 12.7043 60.9594 14.869 65.7732C15.326 66.7895 16.6866 66.9122 17.3699 66.032C17.7254 65.574 17.7895 64.9557 17.5536 64.426C15.5909 60.0182 14.5 55.1365 14.5 50C14.5 44.8635 15.5909 39.9818 17.5536 35.5739C17.7895 35.0442 17.7254 34.426 17.3699 33.968ZM11.9471 26.9827C12.3305 27.4766 12.3703 28.1535 12.0637 28.6983C8.52088 34.9942 6.5 42.2611 6.5 50C6.5 57.7388 8.52088 65.0057 12.0637 71.3016C12.3703 71.8465 12.3305 72.5234 11.9471 73.0172C11.3 73.8508 10.0223 73.7868 9.50254 72.8684C5.68122 66.1158 3.5 58.3126 3.5 50C3.5 41.6873 5.68122 33.8842 9.50254 27.1316C10.0223 26.2131 11.3 26.1491 11.9471 26.9827ZM88.0529 26.9827C87.6695 27.4766 87.6297 28.1535 87.9363 28.6983C91.4791 34.9943 93.5 42.2611 93.5 50C93.5 57.7388 91.4791 65.0057 87.9363 71.3016C87.6297 71.8465 87.6695 72.5234 88.0529 73.0173C88.7 73.8508 89.9777 73.7868 90.4975 72.8684C94.3188 66.1158 96.5 58.3126 96.5 50C96.5 41.6873 94.3188 33.8842 90.4975 27.1316C89.9777 26.2131 88.7 26.1491 88.0529 26.9827Z" fill="#00D1FF"/>
<circle cx="50" cy="50" r="29" fill="url(#paint0_radial_100_215)" fill-opacity="0.34" stroke="url(#paint1_linear_100_215)" stroke-opacity="0.5"/>
<path d="M39.4203 45.7031C40.2031 45.7031 40.8406 46.3406 40.8406 47.1234V54.8297C40.8406 55.6125 40.2031 56.25 39.4203 56.25C38.6375 56.25 38 55.6125 38 54.8297V47.1234C38 46.3406 38.6375 45.7031 39.4203 45.7031Z" fill="#00D1FF"/>
<path d="M44.7078 41.0156C45.4906 41.0156 46.1281 41.6531 46.1281 42.4359V59.5219C46.1281 60.3047 45.4906 60.9422 44.7078 60.9422C43.925 60.9422 43.2875 60.3047 43.2875 59.5219V42.4359C43.2922 41.6531 43.925 41.0156 44.7078 41.0156Z" fill="#00D1FF"/>
<path d="M50 45.7266C50.7828 45.7266 51.4203 46.3641 51.4203 47.1469V54.8531C51.4203 55.6359 50.7828 56.2734 50 56.2734C49.2172 56.2734 48.5797 55.6359 48.5797 54.8531V47.1469C48.5797 46.3641 49.2172 45.7266 50 45.7266Z" fill="#00D1FF"/>
<path d="M55.2922 41.0625C56.075 41.0625 56.7125 41.7 56.7125 42.4828V59.5687C56.7125 60.3516 56.075 60.9891 55.2922 60.9891C54.5094 60.9891 53.8719 60.3516 53.8719 59.5687V42.4781C53.8719 41.6953 54.5047 41.0625 55.2922 41.0625Z" fill="#00D1FF"/>
<path d="M60.5797 45.75C61.3625 45.75 62 46.3875 62 47.1703V54.8766C62 55.6594 61.3625 56.2969 60.5797 56.2969C59.7969 56.2969 59.1594 55.6594 59.1594 54.8766V47.1703C59.1594 46.3875 59.7969 45.75 60.5797 45.75Z" fill="#00D1FF"/>
<defs>
<radialGradient id="paint0_radial_100_215" cx="0" cy="0" r="1" gradientUnits="userSpaceOnUse" gradientTransform="translate(50 50) rotate(90) scale(29)">
<stop offset="0.390625" stop-color="#00D1FF" stop-opacity="0"/>
<stop offset="1" stop-color="#00D1FF"/>
</radialGradient>
<linearGradient id="paint1_linear_100_215" x1="50" y1="21" x2="50" y2="79" gradientUnits="userSpaceOnUse">
<stop stop-color="#00D1FF"/>
<stop offset="1" stop-color="#00D1FF" stop-opacity="0"/>
</linearGradient>
</defs>
</svg>
