<svg width="75" height="75" viewBox="0 0 75 75" fill="none" xmlns="http://www.w3.org/2000/svg">
<path fill-rule="evenodd" clip-rule="evenodd" d="M17 1.5C16.3134 1.5 15.6375 1.54461 14.9749 1.63104C14.7011 1.66675 14.4502 1.47373 14.4145 1.19991C14.3787 0.926087 14.5718 0.675155 14.8456 0.639437C15.5509 0.547432 16.27 0.5 17 0.5H19.1667C19.4428 0.5 19.6667 0.723858 19.6667 1C19.6667 1.27614 19.4428 1.5 19.1667 1.5H17ZM27.3333 1C27.3333 0.723858 27.5572 0.5 27.8333 0.5H32.1667C32.4428 0.5 32.6667 0.723858 32.6667 1C32.6667 1.27614 32.4428 1.5 32.1667 1.5H27.8333C27.5572 1.5 27.3333 1.27614 27.3333 1ZM40.3333 1C40.3333 0.723858 40.5572 0.5 40.8333 0.5H43C43.9424 0.5 44.8668 0.579065 45.7667 0.73103C46.039 0.777011 46.2225 1.03502 46.1765 1.3073C46.1305 1.57959 45.8725 1.76305 45.6002 1.71707C44.7551 1.57436 43.8864 1.5 43 1.5H40.8333C40.5572 1.5 40.3333 1.27614 40.3333 1ZM7.65592 4.00094C7.82418 4.2199 7.78308 4.53381 7.56412 4.70207C6.49017 5.52735 5.52736 6.49017 4.70207 7.56412C4.53381 7.78308 4.21991 7.82418 4.00095 7.65591C3.78199 7.48765 3.74089 7.17375 3.90915 6.95479C4.7874 5.81193 5.81193 4.78739 6.95479 3.90915C7.17375 3.74089 7.48766 3.78199 7.65592 4.00094ZM54.6062 5.97525C54.8122 5.79134 55.1283 5.80924 55.3122 6.01524C55.9281 6.70514 56.487 7.4472 56.9813 8.23401C57.1282 8.46783 57.0578 8.77647 56.8239 8.92338C56.5901 9.07028 56.2815 8.99982 56.1346 8.76599C55.6702 8.02683 55.1451 7.32957 54.5662 6.68122C54.3823 6.47523 54.4002 6.15916 54.6062 5.97525ZM1.19991 14.4145C1.47373 14.4502 1.66675 14.7011 1.63104 14.9749C1.54461 15.6375 1.5 16.3134 1.5 17V19.1667C1.5 19.4428 1.27614 19.6667 1 19.6667C0.723858 19.6667 0.5 19.4428 0.5 19.1667V17C0.5 16.27 0.547432 15.5509 0.639437 14.8456C0.675155 14.5718 0.926087 14.3787 1.19991 14.4145ZM1 27.3333C1.27614 27.3333 1.5 27.5572 1.5 27.8333V32.1667C1.5 32.4428 1.27614 32.6667 1 32.6667C0.723858 32.6667 0.5 32.4428 0.5 32.1667V27.8333C0.5 27.5572 0.723858 27.3333 1 27.3333ZM1 40.3333C1.27614 40.3333 1.5 40.5572 1.5 40.8333V43C1.5 43.8532 1.56888 44.6899 1.7013 45.505C1.74558 45.7776 1.56051 46.0344 1.28794 46.0787C1.01538 46.123 0.758519 45.9379 0.71424 45.6654C0.573245 44.7974 0.5 43.9071 0.5 43V40.8333C0.5 40.5572 0.723858 40.3333 1 40.3333ZM5.61942 54.2575C5.80961 54.0573 6.12609 54.0492 6.32629 54.2393C6.9335 54.8162 7.58736 55.3443 8.2816 55.8175C8.50978 55.973 8.56868 56.284 8.41316 56.5122C8.25764 56.7404 7.94659 56.7993 7.7184 56.6438C6.97949 56.1402 6.28366 55.5782 5.63755 54.9644C5.43734 54.7742 5.42923 54.4577 5.61942 54.2575Z" fill="#00D1FF"/>
<rect x="16" y="16" width="58" height="58" rx="16" fill="url(#paint0_radial_106_603)" fill-opacity="0.25" stroke="url(#paint1_linear_106_603)" stroke-opacity="0.5"/>
<path fill-rule="evenodd" clip-rule="evenodd" d="M49.6414 42.6836C54.5612 42.6836 58.5496 46.672 58.5496 51.5918C58.5496 56.5117 54.5612 60.5 49.6414 60.5C44.7215 60.5 40.7332 56.5117 40.7332 51.5918C40.7331 46.672 44.7215 42.6836 49.6414 42.6836ZM44.6954 52.1019L47.6739 55.0804C48.1081 55.5146 48.8123 55.5146 49.2465 55.0804C51.3799 52.947 52.4671 51.8131 54.5904 49.6686C55.0223 49.2342 55.0203 48.5321 54.5861 48.1003C54.1518 47.6684 53.4496 47.6703 53.0178 48.1046L48.4584 52.7197L46.2679 50.5292C45.8337 50.095 45.1296 50.095 44.6953 50.5292C44.2611 50.9636 44.2611 51.6676 44.6954 52.1019ZM36.4529 33.7593C36.4529 36.7302 38.2853 39.1387 40.5459 39.1387C42.8064 39.1387 44.6389 36.7302 44.6389 33.7593C44.6389 30.7883 42.8064 29.5 40.5459 29.5C38.2854 29.5 36.4529 30.7883 36.4529 33.7593ZM45.7874 40.7137C42.3432 39.8594 38.8515 39.8016 35.3044 40.7137C33.2581 41.2397 31.4504 42.3708 31.4504 44.396V52.6584H35.0834V46.2954C35.0834 46.0193 35.3073 45.7954 35.5834 45.7954C35.8596 45.7954 36.0834 46.0193 36.0834 46.2954V52.6584H39.7904C39.7529 52.308 39.7331 51.9522 39.7331 51.5919C39.7331 46.6001 43.4256 42.4707 48.2278 41.7845C47.5524 41.2889 46.6942 40.9387 45.7874 40.7137Z" fill="#00D1FF"/>
<defs>
<radialGradient id="paint0_radial_106_603" cx="0" cy="0" r="1" gradientUnits="userSpaceOnUse" gradientTransform="translate(45 45) rotate(90) scale(29)">
<stop offset="0.390625" stop-color="#00D1FF" stop-opacity="0"/>
<stop offset="1" stop-color="#00D1FF"/>
</radialGradient>
<linearGradient id="paint1_linear_106_603" x1="45" y1="16" x2="45" y2="74" gradientUnits="userSpaceOnUse">
<stop stop-color="#00D1FF"/>
<stop offset="1" stop-color="#00D1FF" stop-opacity="0"/>
</linearGradient>
</defs>
</svg>
