<svg width="48" height="48" viewBox="0 0 48 48" fill="none" xmlns="http://www.w3.org/2000/svg">
<path d="M27 44.25H21C20.8011 44.25 20.6103 44.171 20.4697 44.0303C20.329 43.8897 20.25 43.6989 20.25 43.5C20.25 43.3011 20.329 43.1103 20.4697 42.9697C20.6103 42.829 20.8011 42.75 21 42.75H27C27.1989 42.75 27.3897 42.829 27.5303 42.9697C27.671 43.1103 27.75 43.3011 27.75 43.5C27.75 43.6989 27.671 43.8897 27.5303 44.0303C27.3897 44.171 27.1989 44.25 27 44.25Z" fill="#00D1FF"/>
<path d="M28.5 42H19.5C19.3011 42 19.1103 41.921 18.9697 41.7803C18.829 41.6397 18.75 41.4489 18.75 41.25C18.75 41.0511 18.829 40.8603 18.9697 40.7197C19.1103 40.579 19.3011 40.5 19.5 40.5H28.5C28.6989 40.5 28.8897 40.579 29.0303 40.7197C29.171 40.8603 29.25 41.0511 29.25 41.25C29.25 41.4489 29.171 41.6397 29.0303 41.7803C28.8897 41.921 28.6989 42 28.5 42Z" fill="#00D1FF"/>
<path d="M24 8.25C23.8011 8.25 23.6103 8.17098 23.4697 8.03033C23.329 7.88968 23.25 7.69891 23.25 7.5V4.5C23.25 4.30109 23.329 4.11032 23.4697 3.96967C23.6103 3.82902 23.8011 3.75 24 3.75C24.1989 3.75 24.3897 3.82902 24.5303 3.96967C24.671 4.11032 24.75 4.30109 24.75 4.5V7.5C24.75 7.69891 24.671 7.88968 24.5303 8.03033C24.3897 8.17098 24.1989 8.25 24 8.25Z" fill="#00D1FF"/>
<path d="M12.3322 13.0824C12.1333 13.0823 11.9426 13.0033 11.802 12.8626L9.68099 10.7416C9.60936 10.6724 9.55222 10.5897 9.51292 10.4982C9.47361 10.4067 9.45292 10.3083 9.45205 10.2087C9.45119 10.1091 9.47017 10.0103 9.50788 9.91815C9.54559 9.82598 9.60128 9.74224 9.6717 9.67182C9.74212 9.6014 9.82585 9.54571 9.91803 9.508C10.0102 9.47029 10.109 9.45131 10.2085 9.45218C10.3081 9.45304 10.4065 9.47373 10.498 9.51304C10.5895 9.55235 10.6723 9.60948 10.7415 9.68111L12.8625 11.8021C12.9673 11.907 13.0388 12.0406 13.0677 12.1861C13.0966 12.3316 13.0818 12.4823 13.025 12.6194C12.9682 12.7564 12.8721 12.8735 12.7488 12.9559C12.6255 13.0383 12.4806 13.0823 12.3322 13.0824Z" fill="#00D1FF"/>
<path d="M7.5 24.75H4.5C4.30109 24.75 4.11032 24.671 3.96967 24.5303C3.82902 24.3897 3.75 24.1989 3.75 24C3.75 23.8011 3.82902 23.6103 3.96967 23.4697C4.11032 23.329 4.30109 23.25 4.5 23.25H7.5C7.69891 23.25 7.88968 23.329 8.03033 23.4697C8.17098 23.6103 8.25 23.8011 8.25 24C8.25 24.1989 8.17098 24.3897 8.03033 24.5303C7.88968 24.671 7.69891 24.75 7.5 24.75Z" fill="#00D1FF"/>
<path d="M35.6677 13.0824C35.5194 13.0823 35.3745 13.0383 35.2512 12.9559C35.1278 12.8735 35.0317 12.7564 34.975 12.6194C34.9182 12.4823 34.9034 12.3316 34.9323 12.1861C34.9612 12.0406 35.0326 11.907 35.1375 11.8021L37.2585 9.68111C37.3277 9.60948 37.4104 9.55235 37.5019 9.51304C37.5934 9.47373 37.6919 9.45304 37.7914 9.45218C37.891 9.45131 37.9898 9.47029 38.082 9.508C38.1741 9.54571 38.2579 9.6014 38.3283 9.67182C38.3987 9.74224 38.4544 9.82598 38.4921 9.91815C38.5298 10.0103 38.5488 10.1091 38.5479 10.2087C38.5471 10.3083 38.5264 10.4067 38.4871 10.4982C38.4478 10.5897 38.3906 10.6724 38.319 10.7416L36.198 12.8626C36.0574 13.0033 35.8666 13.0823 35.6677 13.0824Z" fill="#00D1FF"/>
<path d="M43.5 24.75H40.5C40.3011 24.75 40.1103 24.671 39.9697 24.5303C39.829 24.3897 39.75 24.1989 39.75 24C39.75 23.8011 39.829 23.6103 39.9697 23.4697C40.1103 23.329 40.3011 23.25 40.5 23.25H43.5C43.6989 23.25 43.8897 23.329 44.0303 23.4697C44.171 23.6103 44.25 23.8011 44.25 24C44.25 24.1989 44.171 24.3897 44.0303 24.5303C43.8897 24.671 43.6989 24.75 43.5 24.75Z" fill="#00D1FF"/>
<path d="M25.125 34.5H26.625V36H25.125V34.5Z" fill="#00D1FF"/>
<path d="M21.375 34.5H22.875V36H21.375V34.5Z" fill="#00D1FF"/>
<path d="M33 13.9352C31.5817 12.6568 29.9061 11.6969 28.086 11.1199C26.2658 10.543 24.3433 10.3624 22.4475 10.5902C19.6273 10.9165 16.9818 12.1235 14.8871 14.0397C12.7923 15.9559 11.3549 18.4836 10.7793 21.2636C10.2037 24.0436 10.5192 26.9344 11.6809 29.5248C12.8425 32.1152 14.7913 34.2735 17.25 35.6927V37.5002C17.2518 38.0964 17.4894 38.6677 17.911 39.0892C18.3325 39.5108 18.9038 39.7484 19.5 39.7502H28.5C29.0962 39.7484 29.6675 39.5108 30.089 39.0892C30.5106 38.6677 30.7482 38.0964 30.75 37.5002V35.6927C32.5983 34.6252 34.1673 33.1347 35.3282 31.3435C36.4891 29.5523 37.2088 27.5114 37.4284 25.3883C37.6479 23.2651 37.3611 21.1201 36.5913 19.1293C35.8215 17.1384 34.5908 15.3584 33 13.9352ZM29.805 34.5002L29.6475 34.5902C29.5185 34.6567 29.4119 34.7597 29.3412 34.8865C29.2705 35.0132 29.2388 35.158 29.25 35.3027V37.5002C29.25 37.6991 29.171 37.8899 29.0303 38.0306C28.8897 38.1712 28.6989 38.2502 28.5 38.2502H19.5C19.3011 38.2502 19.1103 38.1712 18.9697 38.0306C18.829 37.8899 18.75 37.6991 18.75 37.5002V35.3177C18.7633 35.1716 18.7334 35.0248 18.6641 34.8955C18.5948 34.7662 18.489 34.66 18.36 34.5902L18.2025 34.5002C15.873 33.2137 14.0372 31.1894 12.9838 28.7456C11.9305 26.3018 11.7193 23.5771 12.3836 21.0002C13.0479 18.4233 14.5499 16.1403 16.6534 14.5103C18.7569 12.8803 21.3426 11.9957 24.0038 11.9957C26.6649 11.9957 29.2506 12.8803 31.3541 14.5103C33.4576 16.1403 34.9596 18.4233 35.6239 21.0002C36.2882 23.5771 36.077 26.3018 35.0237 28.7456C33.9703 31.1894 32.1345 33.2137 29.805 34.5002Z" fill="#00D1FF"/>
<path d="M28.875 26.25C28.875 26.4489 28.796 26.6397 28.6553 26.7803C28.5147 26.921 28.3239 27 28.125 27C27.9867 27.0019 27.851 26.9628 27.735 26.8875C27.7275 26.88 27.7125 26.88 27.705 26.8725C27.6042 26.8027 27.5217 26.7097 27.4642 26.6014C27.4068 26.4931 27.3762 26.3726 27.375 26.25C27.375 26.0511 27.454 25.8603 27.5947 25.7197C27.7353 25.579 27.9261 25.5 28.125 25.5C28.3239 25.5 28.5147 25.579 28.6553 25.7197C28.796 25.8603 28.875 26.0511 28.875 26.25Z" fill="#00D1FF"/>
<path d="M32.4975 14.5423C31.1817 13.3629 29.635 12.47 27.9557 11.9202C26.2764 11.3705 24.5011 11.1759 22.7426 11.3488C20.9841 11.5217 19.2807 12.0584 17.7406 12.9247C16.2006 13.7911 14.8575 14.9682 13.7966 16.3813C12.7357 17.7944 11.9802 19.4126 11.5781 21.1333C11.176 22.854 11.1361 24.6394 11.4608 26.3763C11.7856 28.1133 12.4679 29.7637 13.4645 31.2228C14.4611 32.682 15.7502 33.918 17.25 34.8523C17.445 34.9798 17.64 35.0923 17.8425 35.2048H30.165C31.9468 34.2201 33.4669 32.823 34.5981 31.1304C35.7293 29.4378 36.4388 27.4989 36.6671 25.4759C36.8955 23.453 36.6361 21.4047 35.9107 19.5025C35.1853 17.6004 34.0149 15.8995 32.4975 14.5423ZM21.375 34.4998V30.2098L20.325 28.4548C20.1769 28.485 20.0261 28.5001 19.875 28.4998C19.3623 28.5009 18.8646 28.3272 18.4639 28.0074C18.0632 27.6876 17.7835 27.2408 17.6709 26.7406C17.5583 26.2405 17.6195 25.7169 17.8444 25.2562C18.0693 24.7955 18.4446 24.4252 18.9082 24.2064C19.3719 23.9877 19.8962 23.9334 20.3948 24.0527C20.8934 24.172 21.3365 24.4576 21.651 24.8626C21.9654 25.2675 22.1324 25.7675 22.1245 26.2801C22.1166 26.7927 21.9343 27.2873 21.6075 27.6823L22.77 29.6173C22.8387 29.7331 22.875 29.8652 22.875 29.9998V34.4998H21.375ZM28.125 28.4998C27.9739 28.5001 27.8231 28.485 27.675 28.4548L26.625 30.2098V34.4998H25.125V29.9998C25.125 29.8652 25.1613 29.7331 25.23 29.6173L26.3925 27.6823C26.0669 27.2879 25.8853 26.7943 25.8778 26.2829C25.8703 25.7715 26.0372 25.2728 26.3511 24.869C26.665 24.4652 27.1071 24.1803 27.6046 24.0615C28.1021 23.9426 28.6252 23.9967 29.0877 24.215C29.5503 24.4333 29.9247 24.8026 30.1492 25.2622C30.3737 25.7217 30.435 26.2441 30.3228 26.7431C30.2107 27.2421 29.9319 27.688 29.5324 28.0074C29.1329 28.3267 28.6365 28.5004 28.125 28.4998ZM19.875 25.4998C19.6761 25.4998 19.4853 25.5789 19.3447 25.7195C19.204 25.8602 19.125 26.0509 19.125 26.2498C19.125 26.4488 19.204 26.6395 19.3447 26.7802C19.4853 26.9208 19.6761 26.9998 19.875 26.9998C20.0133 27.0018 20.149 26.9626 20.265 26.8873C20.2725 26.8798 20.2875 26.8798 20.295 26.8723C20.3958 26.8025 20.4783 26.7096 20.5358 26.6013C20.5932 26.4929 20.6238 26.3724 20.625 26.2498C20.625 26.0509 20.546 25.8602 20.4053 25.7195C20.2647 25.5789 20.0739 25.4998 19.875 25.4998Z" fill="#00D1FF"/>
<path d="M17.25 34.5H30V36H17.25V34.5Z" fill="#00D1FF"/>
</svg>
