<svg width="40" height="40" viewBox="0 0 40 40" fill="none" xmlns="http://www.w3.org/2000/svg">
<path d="M35.64 4.36C31.6 0.32 22.64 0 20 0C17.36 0 8.4 0.32 4.36 4.36C0.32 8.4 0 17.36 0 20C0 22.64 0.32 31.6 4.36 35.64C8.4 39.68 17.36 40 20 40C22.64 40 31.6 39.68 35.64 35.64C39.68 31.6 40 22.64 40 20C40 17.36 39.68 8.4 35.64 4.36ZM24 32H16C15.4696 32 14.9609 31.7893 14.5858 31.4142C14.2107 31.0391 14 30.5304 14 30C14 29.4696 14.2107 28.9609 14.5858 28.5858C14.9609 28.2107 15.4696 28 16 28H24C24.5304 28 25.0391 28.2107 25.4142 28.5858C25.7893 28.9609 26 29.4696 26 30C26 30.5304 25.7893 31.0391 25.4142 31.4142C25.0391 31.7893 24.5304 32 24 32ZM27.42 19.42L21.42 25.42C21.2341 25.6075 21.0129 25.7562 20.7692 25.8578C20.5254 25.9593 20.264 26.0116 20 26.0116C19.736 26.0116 19.4746 25.9593 19.2308 25.8578C18.9871 25.7562 18.7659 25.6075 18.58 25.42L12.58 19.42C12.2034 19.0434 11.9918 18.5326 11.9918 18C11.9918 17.4674 12.2034 16.9566 12.58 16.58C12.9566 16.2034 13.4674 15.9918 14 15.9918C14.5326 15.9918 15.0434 16.2034 15.42 16.58L18 19.18V10C18 9.46957 18.2107 8.96086 18.5858 8.58579C18.9609 8.21071 19.4696 8 20 8C20.5304 8 21.0391 8.21071 21.4142 8.58579C21.7893 8.96086 22 9.46957 22 10V19.18L24.58 16.58C24.9566 16.2034 25.4674 15.9918 26 15.9918C26.5326 15.9918 27.0434 16.2034 27.42 16.58C27.7966 16.9566 28.0082 17.4674 28.0082 18C28.0082 18.5326 27.7966 19.0434 27.42 19.42Z" fill="#00D1FF"/>
</svg>
