<svg width="27" height="32" viewBox="0 0 27 32" fill="none" xmlns="http://www.w3.org/2000/svg">
<path d="M21.7449 17.0165C21.7766 14.5243 23.0838 12.2225 25.2069 10.9164C23.8609 8.99434 21.6884 7.81994 19.3432 7.74588C16.8744 7.48725 14.4821 9.2224 13.2243 9.2224C11.9429 9.2224 10.0067 7.77057 7.92242 7.81406C5.1798 7.90341 2.68405 9.4246 1.34977 11.8228C-1.49278 16.7426 0.627961 23.9747 3.34942 27.9517C4.71192 29.8996 6.30365 32.0745 8.38677 31.998C10.4252 31.9122 11.1858 30.6967 13.6475 30.6967C16.0845 30.6967 16.798 31.998 18.9235 31.9487C21.1112 31.9122 22.4878 29.9913 23.8021 28.0258C24.7814 26.6386 25.5349 25.1045 26.0357 23.4822C23.4365 22.3842 21.7472 19.8379 21.7449 17.0165ZM17.7303 5.12904C18.9223 3.69719 19.5101 1.85741 19.3678 0C17.5457 0.191619 15.8634 1.06272 14.6538 2.43932C13.4606 3.79712 12.8563 5.57341 12.9727 7.37675C14.8195 7.39556 16.5723 6.56678 17.7303 5.12904Z" fill="#EBEBEB"/>
</svg>
