<svg width="48" height="48" viewBox="0 0 48 48" fill="none" xmlns="http://www.w3.org/2000/svg">
<path d="M20.4829 16.125L24.646 11.2676C24.7784 11.1135 24.95 10.998 25.1426 10.9336C25.3353 10.8691 25.5418 10.858 25.7403 10.9014C25.9387 10.9448 26.1218 11.0411 26.2699 11.1801C26.4181 11.3191 26.5258 11.4956 26.5818 11.6909L27.8489 16.125H33.8401C33.8438 15.9994 33.8569 15.8766 33.8569 15.75C33.8569 9.54639 29.4353 4.5 24 4.5C18.5647 4.5 14.1431 9.54639 14.1431 15.75C14.1431 15.8766 14.1563 15.9994 14.1599 16.125H20.4829Z" fill="#00D1FF"/>
<path d="M27 18.3751C26.7555 18.3751 26.5176 18.2955 26.3224 18.1482C26.1272 18.001 25.9853 17.7942 25.9182 17.5591L24.9932 14.3203L21.854 17.9824C21.7483 18.1055 21.6173 18.2043 21.4699 18.2721C21.3225 18.3399 21.1622 18.375 21 18.3751H14.425C15.4651 23.3143 19.3579 27.0001 24 27.0001C28.6421 27.0001 32.5349 23.3143 33.5749 18.3751H27Z" fill="#00D1FF"/>
<path d="M33.3811 26.9417C33.2163 26.8286 33.0308 26.7491 32.8353 26.7078C32.6397 26.6664 32.438 26.6639 32.2415 26.7006C32.045 26.7372 31.8576 26.8122 31.6902 26.9213C31.5227 27.0303 31.3783 27.1714 31.2653 27.3362C30.4488 28.506 29.3619 29.4614 28.097 30.121C26.8321 30.7807 25.4266 31.1251 24 31.1251C22.5734 31.1251 21.1679 30.7807 19.903 30.121C18.6381 29.4614 17.5512 28.506 16.7347 27.3362C16.6217 27.1714 16.4773 27.0303 16.3098 26.9213C16.1424 26.8122 15.955 26.7372 15.7585 26.7006C15.562 26.6639 15.3602 26.6664 15.1647 26.7078C14.9692 26.7491 14.7837 26.8286 14.6189 26.9417C12.4238 28.4571 10.6293 30.4825 9.38935 32.844C8.1494 35.2056 7.50106 37.8328 7.5 40.5001V42.0001C7.5 42.3979 7.65804 42.7794 7.93934 43.0607C8.22064 43.3421 8.60218 43.5001 9 43.5001H13.875V39.0001C13.875 38.7017 13.9935 38.4156 14.2045 38.2046C14.4155 37.9936 14.7016 37.8751 15 37.8751C15.2984 37.8751 15.5845 37.9936 15.7955 38.2046C16.0065 38.4156 16.125 38.7017 16.125 39.0001V43.5001H31.875V39.0001C31.875 38.7017 31.9935 38.4156 32.2045 38.2046C32.4155 37.9936 32.7016 37.8751 33 37.8751C33.2984 37.8751 33.5845 37.9936 33.7955 38.2046C34.0065 38.4156 34.125 38.7017 34.125 39.0001V43.5001H39C39.3978 43.5001 39.7794 43.3421 40.0607 43.0607C40.342 42.7794 40.5 42.3979 40.5 42.0001V40.5001C40.4989 37.8328 39.8506 35.2056 38.6106 32.844C37.3707 30.4825 35.5762 28.4571 33.3811 26.9417Z" fill="#00D1FF"/>
</svg>
