<svg width="29" height="28" viewBox="0 0 29 28" fill="none" xmlns="http://www.w3.org/2000/svg">
<g clip-path="url(#clip0_194_1306)">
<path d="M20.9466 9.60448C17.6939 7.78518 12.4732 4.86382 4.37545 0.32973C3.82951 -0.0308255 3.20137 -0.0780756 2.65865 0.10562L16.552 13.999L20.9466 9.60448Z" fill="#32BBFF"/>
<path d="M2.65865 0.105713C2.55693 0.140166 2.45795 0.181729 2.36328 0.231932C1.76396 0.55612 1.32356 1.17994 1.32356 1.96892V26.0293C1.32356 26.8183 1.76391 27.4421 2.36328 27.7662C2.45778 27.8164 2.55671 27.8581 2.65832 27.8928L16.552 13.9991L2.65865 0.105713Z" fill="#32BBFF"/>
<path d="M16.552 13.999L2.65833 27.8927C3.20121 28.0777 3.82935 28.0341 4.37546 27.6683C12.2285 23.2709 17.3903 20.3841 20.6807 18.5494C20.7723 18.4979 20.862 18.4476 20.9507 18.3978L16.552 13.999Z" fill="#32BBFF"/>
<path d="M1.32356 13.999V26.0292C1.32356 26.8182 1.76391 27.442 2.36328 27.7661C2.45778 27.8163 2.55671 27.858 2.65832 27.8927L16.552 13.999H1.32356Z" fill="#2C9FD9"/>
<path d="M4.37546 0.329652C3.72714 -0.0984427 2.9626 -0.0862473 2.36328 0.231816L16.3412 14.2097L20.9465 9.6044C17.6939 7.7851 12.4732 4.86375 4.37546 0.329652Z" fill="#29CC5E"/>
<path d="M16.3413 13.7881L2.36328 27.766C2.96266 28.084 3.72714 28.1023 4.37546 27.6681C12.2285 23.2707 17.3903 20.384 20.6807 18.5492C20.7723 18.4977 20.862 18.4474 20.9507 18.3976L16.3413 13.7881Z" fill="#D93F21"/>
<path d="M26.7479 13.9989C26.7479 13.3323 26.4115 12.6595 25.7448 12.2864C25.7448 12.2864 24.498 11.5908 20.6762 9.45312L16.1304 13.9989L20.6807 18.5492C24.4605 16.4269 25.7447 15.7114 25.7447 15.7114C26.4115 15.3383 26.7479 14.6656 26.7479 13.9989Z" fill="#FFD500"/>
<path d="M25.7448 15.7115C26.4115 15.3384 26.7479 14.6657 26.7479 13.999H16.1304L20.6807 18.5493C24.4605 16.4271 25.7448 15.7115 25.7448 15.7115Z" fill="#FFAA00"/>
</g>
<defs>
<clipPath id="clip0_194_1306">
<rect width="28" height="28" fill="white" transform="translate(0.0357208)"/>
</clipPath>
</defs>
</svg>
