<svg width="48" height="48" viewBox="0 0 48 48" fill="none" xmlns="http://www.w3.org/2000/svg">
<path d="M39.56 9.8601C33.74 4.6801 14.26 4.6801 8.44 9.8601C5.66 12.3401 4 17.6201 4 24.0001C4 30.3801 5.66 35.6601 8.44 38.1401C11.22 40.6201 17.68 42.0001 24 42.0001C30.32 42.0001 36.64 40.7001 39.56 38.1201C42.48 35.5401 44 30.3801 44 24.0001C44 17.6201 42.34 12.3401 39.56 9.8601ZM14 26.0001C14 26.5305 13.7893 27.0392 13.4142 27.4143C13.0391 27.7894 12.5304 28.0001 12 28.0001C11.4696 28.0001 10.9609 27.7894 10.5858 27.4143C10.2107 27.0392 10 26.5305 10 26.0001V22.0001C10 21.4697 10.2107 20.961 10.5858 20.5859C10.9609 20.2108 11.4696 20.0001 12 20.0001C12.5304 20.0001 13.0391 20.2108 13.4142 20.5859C13.7893 20.961 14 21.4697 14 22.0001V26.0001ZM20 29.0001C20 29.5305 19.7893 30.0392 19.4142 30.4143C19.0391 30.7894 18.5304 31.0001 18 31.0001C17.4696 31.0001 16.9609 30.7894 16.5858 30.4143C16.2107 30.0392 16 29.5305 16 29.0001V19.0001C16 18.4697 16.2107 17.961 16.5858 17.5859C16.9609 17.2108 17.4696 17.0001 18 17.0001C18.5304 17.0001 19.0391 17.2108 19.4142 17.5859C19.7893 17.961 20 18.4697 20 19.0001V29.0001ZM26 33.0001C26 33.5305 25.7893 34.0392 25.4142 34.4143C25.0391 34.7894 24.5304 35.0001 24 35.0001C23.4696 35.0001 22.9609 34.7894 22.5858 34.4143C22.2107 34.0392 22 33.5305 22 33.0001V15.0001C22 14.4697 22.2107 13.961 22.5858 13.5859C22.9609 13.2108 23.4696 13.0001 24 13.0001C24.5304 13.0001 25.0391 13.2108 25.4142 13.5859C25.7893 13.961 26 14.4697 26 15.0001V33.0001ZM32 29.0001C32 29.5305 31.7893 30.0392 31.4142 30.4143C31.0391 30.7894 30.5304 31.0001 30 31.0001C29.4696 31.0001 28.9609 30.7894 28.5858 30.4143C28.2107 30.0392 28 29.5305 28 29.0001V19.0001C28 18.4697 28.2107 17.961 28.5858 17.5859C28.9609 17.2108 29.4696 17.0001 30 17.0001C30.5304 17.0001 31.0391 17.2108 31.4142 17.5859C31.7893 17.961 32 18.4697 32 19.0001V29.0001ZM38 26.0001C38 26.5305 37.7893 27.0392 37.4142 27.4143C37.0391 27.7894 36.5304 28.0001 36 28.0001C35.4696 28.0001 34.9609 27.7894 34.5858 27.4143C34.2107 27.0392 34 26.5305 34 26.0001V22.0001C34 21.4697 34.2107 20.961 34.5858 20.5859C34.9609 20.2108 35.4696 20.0001 36 20.0001C36.5304 20.0001 37.0391 20.2108 37.4142 20.5859C37.7893 20.961 38 21.4697 38 22.0001V26.0001Z" fill="#00D1FF"/>
</svg>
