<svg width="44" height="44" viewBox="0 0 44 44" fill="none" xmlns="http://www.w3.org/2000/svg">
<path d="M28.2402 35.9997C26.9728 38.4139 25.0692 40.4355 22.7354 41.8456C20.4017 43.2557 17.7267 44.0006 15 43.9997H2C1.57956 44.0011 1.1694 43.8699 0.827915 43.6246C0.486425 43.3793 0.231012 43.0326 0.0980385 42.6338C-0.0349346 42.2349 -0.0386894 41.8043 0.0873085 41.4032C0.213306 41.002 0.462635 40.6509 0.799796 40.3997L3.3798 38.4597C1.9727 36.7388 0.966638 34.7261 0.434705 32.5677C-0.0972272 30.4094 -0.141669 28.1597 0.304609 25.982C0.750887 23.8043 1.67668 21.7534 3.01471 19.9783C4.35274 18.2032 6.06942 16.7484 8.04 15.7197C8.01999 16.1397 8 16.5797 8 16.9997C8.00455 22.0374 10.0078 26.8675 13.57 30.4297C17.1322 33.9919 21.9623 35.9952 27 35.9997H28.2402Z" fill="#00D1FF"/>
<path d="M43.2002 30.4004L39.9638 27.9726C42.46 25.0165 43.8721 21.2968 43.9665 17.4289C44.061 13.561 42.8322 9.77679 40.4833 6.70231C38.1345 3.62784 34.8065 1.44738 31.0498 0.521675C27.2931 -0.404026 23.333 -0.0194836 19.8247 1.61168C16.3163 3.24284 13.4699 6.02287 11.7565 9.49181C10.043 12.9607 9.56521 16.9107 10.4021 20.6881C11.2389 24.4656 13.3403 27.8441 16.3585 30.2648C19.3768 32.6855 23.131 34.0032 27 34H42C42.4197 34 42.8289 33.868 43.1694 33.6227C43.51 33.3773 43.7647 33.0309 43.8975 32.6327C44.0302 32.2345 44.0343 31.8047 43.9092 31.404C43.784 31.0033 43.536 30.6522 43.2002 30.4004ZM27 27C26.6044 27 26.2177 26.8827 25.8888 26.6629C25.5599 26.4431 25.3036 26.1308 25.1522 25.7653C25.0009 25.3999 24.9612 24.9977 25.0384 24.6098C25.1156 24.2218 25.3061 23.8655 25.5858 23.5858C25.8655 23.306 26.2218 23.1156 26.6098 23.0384C26.9978 22.9612 27.3999 23.0008 27.7654 23.1522C28.1308 23.3036 28.4432 23.5599 28.6629 23.8888C28.8827 24.2177 29 24.6044 29 25C29 25.5304 28.7893 26.0391 28.4142 26.4142C28.0391 26.7893 27.5304 27 27 27ZM29 19.246V20C29 20.5304 28.7893 21.0391 28.4142 21.4142C28.0391 21.7893 27.5304 22 27 22C26.4696 22 25.9608 21.7893 25.5858 21.4142C25.2107 21.0391 25 20.5304 25 20V19.1464C24.9905 18.3316 25.243 17.5353 25.7204 16.8749C26.1977 16.2145 26.8747 15.7249 27.6513 15.4784C28.2317 15.3066 28.7205 14.9122 29.0111 14.3812C29.3016 13.8502 29.3703 13.2259 29.2021 12.6444C29.0993 12.2713 28.9015 11.9312 28.628 11.6573C28.3545 11.3835 28.0146 11.1852 27.6416 11.082C27.2944 10.9854 26.9295 10.9708 26.5756 11.0393C26.2218 11.1077 25.8887 11.2574 25.6025 11.4765C25.3253 11.6893 25.1009 11.9632 24.9468 12.2769C24.7927 12.5906 24.713 12.9356 24.7138 13.2851C24.7138 13.8155 24.5031 14.3242 24.1281 14.6993C23.753 15.0744 23.2443 15.2851 22.7138 15.2851C22.1834 15.2851 21.6747 15.0744 21.2996 14.6993C20.9246 14.3242 20.7138 13.8155 20.7138 13.2851C20.7133 12.1275 21.0323 10.9922 21.6357 10.0043C22.239 9.01636 23.1033 8.21412 24.1334 7.68593C25.1634 7.15773 26.3193 6.92408 27.4736 7.0107C28.628 7.09732 29.736 7.50086 30.6757 8.17686C31.6154 8.85287 32.3503 9.77511 32.7995 10.842C33.2486 11.9089 33.3946 13.0791 33.2214 14.2236C33.0481 15.3682 32.5623 16.4427 31.8175 17.3289C31.0726 18.215 30.0977 18.8784 29 19.246Z" fill="#00D1FF"/>
</svg>
