<svg width="151" height="50" viewBox="0 0 151 50" fill="none" xmlns="http://www.w3.org/2000/svg">
<g clip-path="url(#clip0_1049_43)">
<path d="M31.462 25.3749C31.489 23.2549 32.601 21.2969 34.407 20.1859C33.262 18.5509 31.414 17.5519 29.419 17.4889C27.319 17.2689 25.284 18.7449 24.214 18.7449C23.124 18.7449 21.477 17.5099 19.704 17.5469C17.371 17.6229 15.248 18.9169 14.113 20.9569C11.695 25.1419 13.499 31.2939 15.814 34.6769C16.973 36.3339 18.327 38.1839 20.099 38.1189C21.833 38.0459 22.48 37.0119 24.574 37.0119C26.647 37.0119 27.254 38.1189 29.062 38.0769C30.923 38.0459 32.094 36.4119 33.212 34.7399C34.045 33.5599 34.686 32.2549 35.112 30.8749C32.901 29.9409 31.464 27.7749 31.462 25.3749ZM28.047 15.2629C29.061 14.0449 29.561 12.4799 29.44 10.8999C27.89 11.0629 26.459 11.8039 25.43 12.9749C24.415 14.1299 23.901 15.6409 24 17.1749C25.571 17.1909 27.062 16.4859 28.047 15.2629Z" fill="#EBEBEB"/>
<path d="M53.3782 33.9249H47.4632L46.0422 38.1199H43.5352L49.1402 22.5969H51.7442L57.3482 38.1199H54.7992L53.3782 33.9249ZM48.0742 31.9869H52.7642L50.4522 25.1799H50.3882L48.0742 31.9869ZM69.4502 32.4619C69.4502 35.9789 67.5682 38.2369 64.7272 38.2369C63.2592 38.3139 61.8762 37.5459 61.1672 36.2589H61.1132V41.8639H58.7882V26.8019H61.0382V28.6849H61.0792C61.8202 27.4059 63.2052 26.6369 64.6832 26.6849C67.5552 26.6849 69.4502 28.9549 69.4502 32.4619ZM67.0632 32.4629C67.0632 30.1709 65.8782 28.6649 64.0722 28.6649C62.2972 28.6649 61.1032 30.2029 61.1032 32.4629C61.1032 34.7429 62.2972 36.2699 64.0722 36.2699C65.8782 36.2699 67.0632 34.7739 67.0632 32.4629ZM81.9072 32.4619C81.9072 35.9789 80.0242 38.2369 77.1832 38.2369C75.7152 38.3139 74.3332 37.5459 73.6232 36.2589H73.5692V41.8639H71.2452V26.8019H73.4942V28.6849H73.5372C74.2782 27.4059 75.6622 26.6369 77.1402 26.6849C80.0132 26.6849 81.9072 28.9549 81.9072 32.4619ZM79.5192 32.4629C79.5192 30.1709 78.3342 28.6649 76.5282 28.6649C74.7532 28.6649 73.5592 30.2029 73.5592 32.4629C73.5592 34.7429 74.7532 36.2699 76.5282 36.2699C78.3342 36.2699 79.5192 34.7739 79.5192 32.4629ZM90.1382 33.7949C90.3102 35.3349 91.8052 36.3449 93.8502 36.3449C95.8082 36.3449 97.2172 35.3349 97.2172 33.9459C97.2172 32.7409 96.3672 32.0209 94.3542 31.5259L92.3432 31.0409C89.4932 30.3539 88.1692 29.0199 88.1692 26.8559C88.1692 24.1789 90.5032 22.3389 93.8182 22.3389C97.0982 22.3389 99.3472 24.1789 99.4222 26.8559H97.0772C96.9372 25.3069 95.6572 24.3719 93.7842 24.3719C91.9122 24.3719 90.6332 25.3189 90.6332 26.6949C90.6332 27.7919 91.4502 28.4389 93.4522 28.9319L95.1622 29.3519C98.3472 30.1059 99.6692 31.3849 99.6692 33.6559C99.6692 36.5599 97.3572 38.3789 93.6782 38.3789C90.2352 38.3789 87.9102 36.6039 87.7602 33.7949H90.1382ZM104.683 24.1249V26.8019H106.835V28.6419H104.683V34.8809C104.683 35.8509 105.114 36.3019 106.06 36.3019C106.316 36.2979 106.571 36.2799 106.824 36.2489V38.0769C106.399 38.1569 105.967 38.1929 105.534 38.1849C103.243 38.1849 102.349 37.3239 102.349 35.1289V28.6419H100.704V26.8019H102.349V24.1249H104.683ZM108.082 32.4619C108.082 28.9009 110.179 26.6639 113.449 26.6639C116.73 26.6639 118.818 28.9009 118.818 32.4619C118.818 36.0319 116.742 38.2599 113.449 38.2599C110.158 38.2599 108.082 36.0319 108.082 32.4619ZM116.45 32.4619C116.45 30.0199 115.332 28.5769 113.449 28.5769C111.567 28.5769 110.449 30.0299 110.449 32.4619C110.449 34.9149 111.567 36.3449 113.449 36.3449C115.332 36.3449 116.45 34.9149 116.45 32.4619ZM120.733 26.8019H122.949V28.7289H123.003C123.312 27.4899 124.448 26.6369 125.724 26.6849C125.992 26.6839 126.259 26.7129 126.52 26.7709V28.9439C126.182 28.8409 125.83 28.7929 125.477 28.8039C124.794 28.7759 124.133 29.0479 123.667 29.5489C123.202 30.0489 122.978 30.7279 123.055 31.4069V38.1199H120.733V26.8019ZM137.23 34.7959C136.918 36.8499 134.918 38.2599 132.358 38.2599C129.065 38.2599 127.022 36.0549 127.022 32.5159C127.022 28.9659 129.077 26.6639 132.259 26.6639C135.392 26.6639 137.359 28.8139 137.359 32.2459V33.0419H129.367V33.1819C129.292 34.0249 129.583 34.8589 130.166 35.4719C130.748 36.0849 131.566 36.4189 132.412 36.3869C133.538 36.4929 134.601 35.8459 135.024 34.7959H137.23ZM129.378 31.4189H135.035C135.078 30.6619 134.802 29.9209 134.276 29.3759C133.749 28.8309 133.018 28.5299 132.26 28.5459C131.496 28.5419 130.762 28.8419 130.221 29.3819C129.679 29.9209 129.376 30.6549 129.378 31.4189Z" fill="#EBEBEB"/>
<path d="M47.7828 10.9139C48.7698 10.8429 49.7358 11.2179 50.4158 11.9359C51.0958 12.6539 51.4178 13.6389 51.2928 14.6199C51.2928 17.0029 50.0058 18.3729 47.7828 18.3729H45.0898V10.9129L47.7828 10.9139ZM46.2488 17.3179H47.6548C48.3588 17.3589 49.0448 17.0809 49.5218 16.5609C49.9988 16.0409 50.2158 15.3329 50.1138 14.6349C50.2088 13.9399 49.9888 13.2379 49.5128 12.7219C49.0368 12.2049 48.3558 11.9289 47.6548 11.9679H46.2488V17.3179ZM52.6008 15.5549C52.5078 14.5479 52.9928 13.5749 53.8528 13.0429C54.7128 12.5109 55.7988 12.5109 56.6588 13.0429C57.5188 13.5749 58.0038 14.5479 57.9108 15.5549C58.0118 16.5659 57.5288 17.5469 56.6658 18.0839C55.8028 18.6209 54.7098 18.6209 53.8468 18.0839C52.9838 17.5469 52.5018 16.5659 52.6018 15.5549H52.6008ZM56.7678 15.5549C56.7678 14.3349 56.2198 13.6209 55.2578 13.6209C54.2918 13.6209 53.7498 14.3349 53.7498 15.5549C53.7498 16.7849 54.2918 17.4929 55.2578 17.4929C56.2208 17.4929 56.7678 16.7799 56.7678 15.5549ZM64.9668 18.3719H63.8148L62.6518 14.2259H62.5648L61.4058 18.3719H60.2648L58.7118 12.7439H59.8398L60.8468 17.0389H60.9308L62.0888 12.7439H63.1538L64.3108 17.0389H64.3988L65.4018 12.7439H66.5138L64.9668 18.3719ZM67.8188 12.7439H68.8868V13.6379H68.9698C69.2588 12.9789 69.9328 12.5769 70.6498 12.6349C71.2048 12.5929 71.7478 12.8059 72.1268 13.2129C72.5058 13.6209 72.6798 14.1779 72.5988 14.7289V18.3729H71.4868V15.0079C71.4868 14.1029 71.0948 13.6529 70.2718 13.6529C69.8958 13.6349 69.5308 13.7829 69.2728 14.0569C69.0138 14.3309 68.8888 14.7039 68.9288 15.0789V18.3729H67.8188V12.7439ZM74.3678 10.5459H75.4778V18.3709H74.3678V10.5459ZM77.0228 15.5549C76.9278 14.5469 77.4118 13.5709 78.2728 13.0379C79.1328 12.5039 80.2218 12.5039 81.0828 13.0379C81.9438 13.5709 82.4278 14.5469 82.3318 15.5549C82.4328 16.5659 81.9498 17.5469 81.0868 18.0839C80.2238 18.6209 79.1308 18.6209 78.2678 18.0839C77.4058 17.5469 76.9228 16.5659 77.0228 15.5549ZM81.1898 15.5549C81.1898 14.3349 80.6408 13.6209 79.6798 13.6209C78.7128 13.6209 78.1708 14.3349 78.1708 15.5549C78.1708 16.7849 78.7128 17.4929 79.6798 17.4929C80.6418 17.4929 81.1898 16.7799 81.1898 15.5549ZM83.5008 16.7799C83.5008 15.7679 84.2558 15.1829 85.5958 15.0999L87.1208 15.0129V14.5259C87.1208 13.9329 86.7268 13.5959 85.9688 13.5959C85.3468 13.5959 84.9188 13.8239 84.7948 14.2209H83.7198C83.8318 13.2549 84.7418 12.6339 86.0198 12.6339C87.4298 12.6339 88.2258 13.3379 88.2258 14.5259V18.3729H87.1568V17.5809H87.0698C86.7058 18.1589 86.0598 18.4969 85.3788 18.4649C84.9008 18.5149 84.4238 18.3599 84.0658 18.0389C83.7088 17.7179 83.5028 17.2609 83.5008 16.7799ZM87.1198 16.2999V15.8289L85.7448 15.9159C84.9698 15.9689 84.6198 16.2319 84.6198 16.7289C84.6198 17.2349 85.0578 17.5289 85.6618 17.5289C86.0198 17.5649 86.3758 17.4539 86.6508 17.2229C86.9258 16.9909 87.0948 16.6579 87.1198 16.2999ZM89.6858 15.5549C89.6858 13.7759 90.6008 12.6499 92.0228 12.6499C92.7408 12.6169 93.4128 13.0019 93.7478 13.6369H93.8318V10.5459H94.9418V18.3709H93.8778V17.4839H93.7908C93.4298 18.1139 92.7478 18.4919 92.0218 18.4649C90.5908 18.4649 89.6858 17.3389 89.6858 15.5549ZM90.8338 15.5549C90.8338 16.7489 91.3958 17.4669 92.3368 17.4669C93.2748 17.4669 93.8518 16.7389 93.8518 15.5599C93.8518 14.3869 93.2668 13.6469 92.3368 13.6469C91.4018 13.6469 90.8338 14.3719 90.8338 15.5549ZM99.5378 15.5549C99.4428 14.5469 99.9268 13.5709 100.788 13.0379C101.648 12.5039 102.737 12.5039 103.598 13.0379C104.459 13.5709 104.943 14.5469 104.847 15.5549C104.948 16.5659 104.465 17.5469 103.602 18.0839C102.739 18.6209 101.646 18.6209 100.783 18.0839C99.9208 17.5469 99.4378 16.5659 99.5378 15.5549ZM103.705 15.5549C103.705 14.3349 103.157 13.6209 102.195 13.6209C101.23 13.6209 100.686 14.3349 100.686 15.5549C100.686 16.7849 101.23 17.4929 102.195 17.4929C103.157 17.4929 103.705 16.7799 103.705 15.5549ZM106.339 12.7439H107.407V13.6379H107.49C107.779 12.9789 108.453 12.5769 109.17 12.6349C109.725 12.5929 110.268 12.8059 110.647 13.2129C111.026 13.6209 111.2 14.1779 111.119 14.7289V18.3729H110.007V15.0079C110.007 14.1029 109.615 13.6529 108.792 13.6529C108.416 13.6349 108.051 13.7829 107.793 14.0569C107.534 14.3309 107.409 14.7039 107.449 15.0789V18.3729H106.337L106.339 12.7439ZM117.395 11.3419V12.7689H118.615V13.7049H117.395V16.5989C117.395 17.1889 117.637 17.4469 118.191 17.4469C118.333 17.4469 118.474 17.4379 118.615 17.4209V18.3459C118.415 18.3819 118.213 18.4009 118.01 18.4039C116.775 18.4039 116.284 17.9689 116.284 16.8839V13.7049H115.39V12.7689H116.284V11.3419H117.395ZM120.132 10.5459H121.232V13.6469H121.32C121.623 12.9829 122.31 12.5799 123.037 12.6399C123.589 12.6099 124.125 12.8279 124.5 13.2339C124.874 13.6389 125.049 14.1909 124.975 14.7389V18.3719H123.864V15.0129C123.864 14.1129 123.445 13.6579 122.66 13.6579C122.273 13.6259 121.892 13.7659 121.619 14.0419C121.346 14.3169 121.208 14.6989 121.242 15.0849V18.3729H120.132V10.5459ZM131.452 16.8519C131.141 17.9139 130.114 18.5999 129.015 18.4809C128.264 18.5019 127.542 18.1909 127.041 17.6309C126.54 17.0709 126.31 16.3189 126.414 15.5749C126.314 14.8289 126.543 14.0769 127.04 13.5129C127.538 12.9489 128.256 12.6289 129.009 12.6349C130.575 12.6349 131.52 13.7049 131.52 15.4719V15.8599H127.545V15.9219C127.509 16.3399 127.652 16.7539 127.938 17.0609C128.223 17.3679 128.625 17.5399 129.045 17.5349C129.588 17.5989 130.116 17.3299 130.382 16.8519H131.452ZM127.545 15.0389H130.389C130.417 14.6559 130.283 14.2799 130.019 14.0019C129.755 13.7239 129.386 13.5709 129.002 13.5799C128.614 13.5749 128.24 13.7269 127.966 14.0019C127.692 14.2769 127.54 14.6509 127.545 15.0389Z" fill="#EBEBEB"/>
</g>
<defs>
<clipPath id="clip0_1049_43">
<rect width="150" height="50" fill="white" transform="translate(0.5)"/>
</clipPath>
</defs>
</svg>
