<svg width="171" height="50" viewBox="0 0 171 50" fill="none" xmlns="http://www.w3.org/2000/svg">
<g clip-path="url(#clip0_1049_53)">
<path d="M90.0524 16.6381C88.9174 16.6381 87.9604 16.2401 87.2034 15.4561C86.4534 14.6941 86.0344 13.6431 86.0534 12.5711C86.0534 11.4261 86.4404 10.4571 87.2034 9.68908C87.9574 8.90508 88.9144 8.50708 90.0494 8.50708C91.1724 8.50708 92.1294 8.90508 92.8984 9.68908C93.6614 10.4831 94.0494 11.4511 94.0494 12.5711C94.0374 13.7191 93.6494 14.6871 92.8984 15.4531C92.1454 16.2431 91.1884 16.6381 90.0524 16.6381ZM56.2744 16.6381C55.1644 16.6381 54.2014 16.2461 53.4134 15.4711C52.6314 14.7001 52.2344 13.7251 52.2344 12.5741C52.2344 11.4231 52.6314 10.4481 53.4134 9.67708C54.1854 8.90208 55.1494 8.51008 56.2744 8.51008C56.8254 8.51008 57.3604 8.62008 57.8724 8.84308C58.3764 9.05908 58.7864 9.35408 59.0894 9.71408L59.1644 9.80508L58.3174 10.6391L58.2294 10.5361C57.7504 9.96508 57.1094 9.68608 56.2624 9.68608C55.5054 9.68608 54.8454 9.95608 54.3014 10.4891C53.7544 11.0251 53.4754 11.7271 53.4754 12.5771C53.4754 13.4271 53.7544 14.1291 54.3014 14.6651C54.8454 15.1991 55.5054 15.4681 56.2624 15.4681C57.0694 15.4681 57.7474 15.1991 58.2764 14.6651C58.5894 14.3521 58.7824 13.9131 58.8514 13.3581H56.1344V12.1851H60.0184L60.0334 12.2921C60.0624 12.4891 60.0904 12.6931 60.0904 12.8811C60.0904 13.9631 59.7644 14.8381 59.1204 15.4841C58.3884 16.2491 57.4314 16.6381 56.2744 16.6381ZM101.186 16.4721H99.9884L96.3194 10.5861L96.3514 11.6461V16.4681H95.1534V8.67608H96.5204L96.5574 8.73608L100.007 14.2801L99.9754 13.2231V8.67608H101.186V16.4721ZM81.0524 16.4721H79.8394V9.84908H77.7344V8.67608H83.1544V9.84908H81.0494V16.4721H81.0524ZM76.7464 16.4721H75.5354V8.67608H76.7464V16.4721ZM69.9444 16.4721H68.7344V9.84908H66.6294V8.67608H72.0484V9.84908H69.9444V16.4721ZM65.8634 16.4591H61.2224V8.67608H65.8634V9.84908H62.4354V11.9881H65.5284V13.1481H62.4354V15.2861H65.8634V16.4591ZM88.0924 14.6501C88.6334 15.1921 89.2894 15.4651 90.0524 15.4651C90.8374 15.4651 91.4784 15.1991 92.0134 14.6501C92.5454 14.1171 92.8144 13.4171 92.8144 12.5741C92.8144 11.7311 92.5454 11.0281 92.0164 10.4981C91.4754 9.95608 90.8154 9.68308 90.0554 9.68308C89.2714 9.68308 88.6294 9.94908 88.0984 10.4981C87.5664 11.0311 87.2974 11.7311 87.2974 12.5741C87.2974 13.4171 87.5634 14.1201 88.0924 14.6501Z" fill="#EBEBEB"/>
<path d="M85.9401 27.356C82.9851 27.356 80.5891 29.604 80.5891 32.705C80.5891 35.778 83.0001 38.054 85.9401 38.054C88.8951 38.054 91.2911 35.79 91.2911 32.705C91.2911 29.604 88.8951 27.356 85.9401 27.356ZM85.9401 35.935C84.3231 35.935 82.9311 34.593 82.9311 32.692C82.9311 30.764 84.3261 29.45 85.9401 29.45C87.5571 29.45 88.9481 30.764 88.9481 32.692C88.9521 34.605 87.5571 35.935 85.9401 35.935ZM74.2661 27.356C71.3101 27.356 68.9151 29.604 68.9151 32.705C68.9151 35.778 71.3261 38.054 74.2661 38.054C77.2211 38.054 79.6171 35.79 79.6171 32.705C79.6171 29.604 77.2181 27.356 74.2661 27.356ZM74.2661 35.935C72.6491 35.935 71.2571 34.593 71.2571 32.692C71.2571 30.764 72.6521 29.45 74.2661 29.45C75.8831 29.45 77.2741 30.764 77.2741 32.692C77.2741 34.605 75.8831 35.935 74.2661 35.935ZM60.3741 28.989V31.253H65.7941C65.6281 32.523 65.2091 33.461 64.5681 34.103C63.7741 34.9 62.5481 35.765 60.3871 35.765C57.0561 35.765 54.4511 33.069 54.4511 29.729C54.4511 26.39 57.0561 23.693 60.3871 23.693C62.1851 23.693 63.4951 24.405 64.4681 25.314L66.0691 23.709C64.7181 22.411 62.9201 21.417 60.3991 21.417C55.8301 21.417 51.9961 25.148 51.9961 29.717C51.9961 34.298 55.8271 38.017 60.3991 38.017C62.8671 38.017 64.7181 37.208 66.1821 35.684C67.6731 34.188 68.1461 32.078 68.1461 30.375C68.1461 29.845 68.1051 29.369 68.0211 28.964H60.3711C60.3741 28.961 60.3741 28.989 60.3741 28.989ZM117.194 30.751C116.747 29.55 115.396 27.343 112.625 27.343C109.879 27.343 107.596 29.51 107.596 32.692C107.596 35.696 109.854 38.042 112.891 38.042C115.33 38.042 116.75 36.546 117.335 35.668L115.524 34.452C114.924 35.345 114.089 35.932 112.904 35.932C111.706 35.932 110.868 35.386 110.311 34.31L117.444 31.347C117.444 31.35 117.194 30.751 117.194 30.751ZM109.92 32.539C109.864 30.472 111.521 29.422 112.707 29.422C113.642 29.422 114.42 29.883 114.686 30.554L109.92 32.539ZM104.125 37.722H106.468V22.006H104.125V37.722ZM100.279 28.544H100.194C99.6661 27.914 98.6621 27.343 97.3801 27.343C94.7181 27.343 92.2661 29.692 92.2661 32.708C92.2661 35.712 94.7061 38.032 97.3801 38.032C98.6461 38.032 99.6661 37.459 100.194 36.816H100.279V37.584C100.279 39.625 99.1901 40.726 97.4361 40.726C96.0001 40.726 95.1091 39.691 94.7461 38.826L92.7111 39.679C93.2951 41.09 94.8561 42.836 97.4331 42.836C100.179 42.836 102.505 41.215 102.505 37.261V27.663H100.291V28.544H100.279ZM97.5891 35.935C95.9721 35.935 94.6211 34.58 94.6211 32.708C94.6211 30.82 95.9721 29.453 97.5891 29.453C99.1901 29.453 100.432 30.836 100.432 32.708C100.447 34.58 99.1931 35.935 97.5891 35.935ZM128.162 22.006H122.561V37.722H124.903V31.771H128.165C130.757 31.771 133.306 29.886 133.306 26.895C133.306 23.903 130.767 22.006 128.162 22.006ZM128.23 29.576H124.9V24.182H128.23C129.985 24.182 130.976 25.634 130.976 26.879C130.976 28.111 129.972 29.576 128.23 29.576ZM142.694 27.327C140.993 27.327 139.239 28.083 138.513 29.729L140.59 30.595C141.037 29.729 141.856 29.434 142.722 29.434C143.936 29.434 145.162 30.162 145.19 31.46V31.626C144.771 31.388 143.851 31.024 142.75 31.024C140.508 31.024 138.235 32.253 138.235 34.558C138.235 36.668 140.074 38.023 142.122 38.023C143.695 38.023 144.561 37.311 145.102 36.487H145.187V37.703H147.445V31.683C147.445 28.879 145.368 27.327 142.694 27.327ZM142.4 35.935C141.634 35.935 140.561 35.558 140.561 34.593C140.561 33.376 141.9 32.915 143.041 32.915C144.073 32.915 144.561 33.138 145.174 33.445C145.005 34.856 143.817 35.922 142.4 35.935ZM155.682 27.663L152.992 34.48H152.908L150.122 27.663H147.601L151.782 37.192L149.399 42.488H151.838L158.271 27.663H155.682ZM134.598 37.722H136.94V22.006H134.598V37.722Z" fill="#EBEBEB"/>
<g clip-path="url(#clip1_1049_53)">
<path d="M34.0574 20.6045C30.8047 18.7852 25.584 15.8638 17.4863 11.3297C16.9404 10.9692 16.3123 10.9219 15.7695 11.1056L29.6629 24.999L34.0574 20.6045Z" fill="#32BBFF"/>
<path d="M15.7687 11.1057C15.667 11.1402 15.568 11.1817 15.4733 11.2319C14.874 11.5561 14.4336 12.1799 14.4336 12.9689V37.0293C14.4336 37.8183 14.8739 38.4421 15.4733 38.7662C15.5678 38.8164 15.6667 38.8581 15.7684 38.8928L29.6621 24.9991L15.7687 11.1057Z" fill="#32BBFF"/>
<path d="M29.6613 24.999L15.7676 38.8927C16.3105 39.0777 16.9386 39.0341 17.4847 38.6683C25.3377 34.2709 30.4996 31.3841 33.7899 29.5494C33.8815 29.4979 33.9713 29.4476 34.06 29.3978L29.6613 24.999Z" fill="#32BBFF"/>
<path d="M14.4336 24.999V37.0292C14.4336 37.8182 14.8739 38.442 15.4733 38.7661C15.5678 38.8163 15.6667 38.858 15.7684 38.8927L29.6621 24.999H14.4336Z" fill="#2C9FD9"/>
<path d="M17.4868 11.3297C16.8385 10.9016 16.0739 10.9138 15.4746 11.2318L29.4525 25.2097L34.0578 20.6044C30.8052 18.7851 25.5845 15.8637 17.4868 11.3297Z" fill="#29CC5E"/>
<path d="M29.4526 24.7881L15.4746 38.766C16.074 39.084 16.8385 39.1023 17.4868 38.6681C25.3398 34.2707 30.5017 31.384 33.792 29.5492C33.8836 29.4977 33.9733 29.4474 34.0621 29.3976L29.4526 24.7881Z" fill="#D93F21"/>
<path d="M39.8596 24.9989C39.8596 24.3323 39.5232 23.6595 38.8565 23.2864C38.8565 23.2864 37.6097 22.5908 33.788 20.4531L29.2422 24.9989L33.7924 29.5492C37.5722 27.4269 38.8565 26.7114 38.8565 26.7114C39.5232 26.3383 39.8596 25.6656 39.8596 24.9989Z" fill="#FFD500"/>
<path d="M38.8565 26.7115C39.5232 26.3384 39.8596 25.6657 39.8596 24.999H29.2422L33.7924 29.5493C37.5723 27.4271 38.8565 26.7115 38.8565 26.7115Z" fill="#FFAA00"/>
</g>
</g>
<defs>
<clipPath id="clip0_1049_53">
<rect width="170" height="50" fill="white" transform="translate(0.5)"/>
</clipPath>
<clipPath id="clip1_1049_53">
<rect width="28" height="28" fill="white" transform="translate(13.1465 11)"/>
</clipPath>
</defs>
</svg>
